<?xml version="1.0" encoding="UTF-8"?><svg id="Layer_1" xmlns="http://www.w3.org/2000/svg" xmlns:xlink="http://www.w3.org/1999/xlink" viewBox="0 0 16 16"><defs><style>.cls-1{clip-path:url(#clippath);}.cls-2{fill:none;}.cls-2,.cls-3,.cls-4,.cls-5{stroke-width:0px;}.cls-3{fill:#42210b;opacity:.1;}.cls-4{fill:#92d301;}.cls-5{fill:#fdfdfb;}</style><clipPath id="clippath"><rect class="cls-2" width="16" height="16"/></clipPath></defs><rect class="cls-4" width="16" height="16"/><g class="cls-1"><g id="Sharethis-v2"><path class="cls-4" d="m8.01.5c2.05,0,4.1,0,6.16,0,.91,0,1.33.42,1.33,1.33,0,4.12,0,8.24,0,12.35,0,.9-.42,1.32-1.34,1.32-4.1,0-8.21,0-12.31,0-.94,0-1.35-.41-1.35-1.35,0-4.1,0-8.21,0-12.31,0-.93.42-1.34,1.36-1.34,2.05,0,4.1,0,6.16,0Zm5.47,11.64c0-1.22-1.26-2.01-2.37-1.46-.33.16-.59.15-.9-.02-1.43-.78-2.88-1.55-4.31-2.33-.14-.08-.25-.22-.37-.33.12-.11.22-.26.36-.33,1.42-.78,2.86-1.53,4.28-2.31.34-.18.62-.21.98-.03.86.43,1.88,0,2.23-.87.35-.9-.15-1.91-1.08-2.18-.92-.27-1.85.29-2.04,1.24-.07.33-.21.55-.52.71-1.48.78-2.95,1.58-4.43,2.38-.27.15-.52.14-.79,0-.75-.42-1.59-.26-2.11.36-.49.6-.5,1.48,0,2.08.51.63,1.36.79,2.11.37.29-.16.54-.15.83,0,1.44.78,2.87,1.56,4.32,2.32.33.18.53.4.6.78.16.82.93,1.36,1.75,1.27.83-.09,1.47-.8,1.47-1.64Z"/><path class="cls-3" d="m13.72,12.38c0,.84-.64,1.55-1.47,1.64-.82.09-1.6-.45-1.75-1.27-.07-.39-.27-.61-.6-.78-1.45-.76-2.88-1.54-4.32-2.32-.29-.16-.54-.17-.83,0-.75.42-1.59.25-2.11-.37-.49-.6-.49-1.48,0-2.08.51-.62,1.36-.78,2.11-.36.28.15.52.16.79,0,1.47-.8,2.95-1.59,4.43-2.38.3-.16.45-.38.52-.71.19-.95,1.13-1.51,2.04-1.24.93.27,1.43,1.28,1.08,2.18-.34.88-1.37,1.3-2.23.87-.36-.18-.64-.16-.98.03-1.42.78-2.85,1.54-4.28,2.31-.14.08-.24.22-.36.33.12.11.23.25.37.33,1.44.78,2.88,1.55,4.31,2.33.31.17.58.18.9.02,1.11-.55,2.37.24,2.37,1.46Z"/><path class="cls-5" d="m13.48,12.14c0,.84-.64,1.55-1.47,1.64-.82.09-1.6-.45-1.75-1.27-.07-.39-.27-.61-.6-.78-1.45-.76-2.88-1.54-4.32-2.32-.29-.16-.54-.17-.83,0-.75.42-1.59.25-2.11-.37-.49-.6-.49-1.48,0-2.08.51-.62,1.36-.78,2.11-.36.28.15.52.16.79,0,1.47-.8,2.95-1.59,4.43-2.38.3-.16.45-.38.52-.71.19-.95,1.13-1.51,2.04-1.24.93.27,1.43,1.28,1.08,2.18-.34.88-1.37,1.3-2.23.87-.36-.18-.64-.16-.98.03-1.42.78-2.85,1.54-4.28,2.31-.14.08-.24.22-.36.33.12.11.23.25.37.33,1.44.78,2.88,1.55,4.31,2.33.31.17.58.18.9.02,1.11-.55,2.37.24,2.37,1.46Z"/></g></g></svg>